solid Untitled-56f795f6
facet normal 0.0 0.0 1.0
  outer loop
    vertex 1.1022225211327934 3.2235428646924364 4.999999999999709
    vertex 1.1022225211327934 4.7764571353075596 4.999999999999709
    vertex 0.9999999999999981 3.999999999999999 4.999999999999709
  endloop
endfacet
facet normal 0.0 0.0 1.0
  outer loop
    vertex 1.1022225211327934 4.7764571353075596 4.999999999999709
    vertex 1.1022225211327934 3.2235428646924364 4.999999999999709
    vertex 1.4019237886466822 2.4999999999999982 4.999999999999709
  endloop
endfacet
facet normal 0.0 0.0 1.0
  outer loop
    vertex 1.1022225211327934 4.7764571353075596 4.999999999999709
    vertex 1.4019237886466822 2.4999999999999982 4.999999999999709
    vertex 1.4019237886466822 5.499999999999998 4.999999999999709
  endloop
endfacet
facet normal 0.0 0.0 1.0
  outer loop
    vertex 1.4019237886466822 5.499999999999998 4.999999999999709
    vertex 1.4019237886466822 2.4999999999999982 4.999999999999709
    vertex 1.878679656440356 1.8786796564403567 4.999999999999709
  endloop
endfacet
facet normal 0.0 0.0 1.0
  outer loop
    vertex 1.4019237886466822 5.499999999999998 4.999999999999709
    vertex 1.878679656440356 1.8786796564403567 4.999999999999709
    vertex 1.8786796564403547 6.121320343559637 4.999999999999709
  endloop
endfacet
facet normal 0.0 0.0 1.0
  outer loop
    vertex 1.8786796564403547 6.121320343559637 4.999999999999709
    vertex 1.878679656440356 1.8786796564403567 4.999999999999709
    vertex 2.499999999999997 6.598076211353313 4.999999999999709
  endloop
endfacet
facet normal 0.0 0.0 1.0
  outer loop
    vertex 2.499999999999997 6.598076211353313 4.999999999999709
    vertex 1.878679656440356 1.8786796564403567 4.999999999999709
    vertex 2.4999999999999996 1.4019237886466835 4.999999999999709
  endloop
endfacet
facet normal 0.0 0.0 1.0
  outer loop
    vertex 2.499999999999997 6.598076211353313 4.999999999999709
    vertex 2.4999999999999996 1.4019237886466835 4.999999999999709
    vertex 3.2235428646924342 6.897777478867201 4.999999999999709
  endloop
endfacet
facet normal 0.0 0.0 1.0
  outer loop
    vertex 3.2235428646924342 6.897777478867201 4.999999999999709
    vertex 2.4999999999999996 1.4019237886466835 4.999999999999709
    vertex 3.223542864692437 1.1022225211327945 4.999999999999709
  endloop
endfacet
facet normal 0.0 0.0 1.0
  outer loop
    vertex 3.2235428646924342 6.897777478867201 4.999999999999709
    vertex 3.223542864692437 1.1022225211327945 4.999999999999709
    vertex 3.9999999999999982 6.999999999999996 4.999999999999709
  endloop
endfacet
facet normal 0.0 0.0 1.0
  outer loop
    vertex 3.9999999999999982 6.999999999999996 4.999999999999709
    vertex 3.223542864692437 1.1022225211327945 4.999999999999709
    vertex 3.9999999999999982 0.9999999999999996 4.999999999999709
  endloop
endfacet
facet normal 0.0 0.0 1.0
  outer loop
    vertex 3.9999999999999982 6.999999999999996 4.999999999999709
    vertex 3.9999999999999982 0.9999999999999996 4.999999999999709
    vertex 4.776457135307558 1.1022225211327947 4.999999999999709
  endloop
endfacet
facet normal 0.0 0.0 1.0
  outer loop
    vertex 3.9999999999999982 6.999999999999996 4.999999999999709
    vertex 4.776457135307558 1.1022225211327947 4.999999999999709
    vertex 4.776457135307555 6.897777478867201 4.999999999999709
  endloop
endfacet
facet normal 0.0 0.0 1.0
  outer loop
    vertex 4.776457135307555 6.897777478867201 4.999999999999709
    vertex 4.776457135307558 1.1022225211327947 4.999999999999709
    vertex 5.499999999999993 6.598076211353313 4.999999999999709
  endloop
endfacet
facet normal 0.0 0.0 1.0
  outer loop
    vertex 5.499999999999993 6.598076211353313 4.999999999999709
    vertex 4.776457135307558 1.1022225211327947 4.999999999999709
    vertex 5.499999999999996 1.4019237886466835 4.999999999999709
  endloop
endfacet
facet normal 0.0 0.0 1.0
  outer loop
    vertex 5.499999999999993 6.598076211353313 4.999999999999709
    vertex 5.499999999999996 1.4019237886466835 4.999999999999709
    vertex 6.121320343559635 6.121320343559639 4.999999999999709
  endloop
endfacet
facet normal 0.0 0.0 1.0
  outer loop
    vertex 6.121320343559635 6.121320343559639 4.999999999999709
    vertex 5.499999999999996 1.4019237886466835 4.999999999999709
    vertex 6.121320343559635 1.8786796564403574 4.999999999999709
  endloop
endfacet
facet normal 0.0 0.0 1.0
  outer loop
    vertex 6.121320343559635 6.121320343559639 4.999999999999709
    vertex 6.121320343559635 1.8786796564403574 4.999999999999709
    vertex 6.59807621135331 2.4999999999999996 4.999999999999709
  endloop
endfacet
facet normal 0.0 0.0 1.0
  outer loop
    vertex 6.121320343559635 6.121320343559639 4.999999999999709
    vertex 6.59807621135331 2.4999999999999996 4.999999999999709
    vertex 6.598076211353307 5.500000000000001 4.999999999999709
  endloop
endfacet
facet normal 0.0 0.0 1.0
  outer loop
    vertex 6.598076211353307 5.500000000000001 4.999999999999709
    vertex 6.59807621135331 2.4999999999999996 4.999999999999709
    vertex 6.897777478867198 4.776457135307562 4.999999999999709
  endloop
endfacet
facet normal 0.0 0.0 1.0
  outer loop
    vertex 6.897777478867198 4.776457135307562 4.999999999999709
    vertex 6.59807621135331 2.4999999999999996 4.999999999999709
    vertex 6.897777478867198 3.223542864692438 4.999999999999709
  endloop
endfacet
facet normal 0.0 0.0 1.0
  outer loop
    vertex 6.897777478867198 4.776457135307562 4.999999999999709
    vertex 6.897777478867198 3.223542864692438 4.999999999999709
    vertex 6.999999999999993 3.9999999999999996 4.999999999999709
  endloop
endfacet
facet normal 0.9914448613738105 -0.13052619222005182 0.0
  outer loop
    vertex 6.999999999999993 3.9999999999999996 1.5
    vertex 6.897777478867198 3.223542864692438 4.999999999999709
    vertex 6.897777478867198 3.223542864692438 1.5
  endloop
endfacet
facet normal 0.9914448613738105 -0.13052619222005182 0.0
  outer loop
    vertex 6.897777478867198 3.223542864692438 4.999999999999709
    vertex 6.999999999999993 3.9999999999999996 1.5
    vertex 6.999999999999993 3.9999999999999996 4.999999999999709
  endloop
endfacet
facet normal 0.9238795325112875 -0.38268343236508784 0.0
  outer loop
    vertex 6.897777478867198 3.223542864692438 1.5
    vertex 6.59807621135331 2.4999999999999996 4.999999999999709
    vertex 6.59807621135331 2.4999999999999996 1.5
  endloop
endfacet
facet normal 0.9238795325112875 -0.38268343236508784 0.0
  outer loop
    vertex 6.59807621135331 2.4999999999999996 4.999999999999709
    vertex 6.897777478867198 3.223542864692438 1.5
    vertex 6.897777478867198 3.223542864692438 4.999999999999709
  endloop
endfacet
facet normal -0.3826834323650902 -0.9238795325112867 0.0
  outer loop
    vertex 3.223542864692437 1.1022225211327945 4.999999999999709
    vertex 2.4999999999999996 1.4019237886466835 1.5
    vertex 3.223542864692437 1.1022225211327945 1.5
  endloop
endfacet
facet normal -0.3826834323650902 -0.9238795325112867 0.0
  outer loop
    vertex 2.4999999999999996 1.4019237886466835 1.5
    vertex 3.223542864692437 1.1022225211327945 4.999999999999709
    vertex 2.4999999999999996 1.4019237886466835 4.999999999999709
  endloop
endfacet
facet normal -0.13052619222005146 -0.9914448613738105 0.0
  outer loop
    vertex 3.9999999999999982 0.9999999999999996 4.999999999999709
    vertex 3.223542864692437 1.1022225211327945 1.5
    vertex 3.9999999999999982 0.9999999999999996 1.5
  endloop
endfacet
facet normal -0.13052619222005146 -0.9914448613738105 0.0
  outer loop
    vertex 3.223542864692437 1.1022225211327945 1.5
    vertex 3.9999999999999982 0.9999999999999996 4.999999999999709
    vertex 3.223542864692437 1.1022225211327945 4.999999999999709
  endloop
endfacet
facet normal -0.6087614290087199 -0.7933533402912358 0.0
  outer loop
    vertex 2.4999999999999996 1.4019237886466835 4.999999999999709
    vertex 1.878679656440356 1.8786796564403567 1.5
    vertex 2.4999999999999996 1.4019237886466835 1.5
  endloop
endfacet
facet normal -0.6087614290087199 -0.7933533402912358 0.0
  outer loop
    vertex 1.878679656440356 1.8786796564403567 1.5
    vertex 2.4999999999999996 1.4019237886466835 4.999999999999709
    vertex 1.878679656440356 1.8786796564403567 4.999999999999709
  endloop
endfacet
facet normal 0.7933533402912338 -0.6087614290087224 0.0
  outer loop
    vertex 6.59807621135331 2.4999999999999996 1.5
    vertex 6.121320343559635 1.8786796564403574 4.999999999999709
    vertex 6.121320343559635 1.8786796564403574 1.5
  endloop
endfacet
facet normal 0.7933533402912338 -0.6087614290087224 0.0
  outer loop
    vertex 6.121320343559635 1.8786796564403574 4.999999999999709
    vertex 6.59807621135331 2.4999999999999996 1.5
    vertex 6.59807621135331 2.4999999999999996 4.999999999999709
  endloop
endfacet
facet normal 0.13052619222005216 -0.9914448613738105 0.0
  outer loop
    vertex 4.776457135307558 1.1022225211327947 4.999999999999709
    vertex 3.9999999999999982 0.9999999999999996 1.5
    vertex 4.776457135307558 1.1022225211327947 1.5
  endloop
endfacet
facet normal 0.13052619222005216 -0.9914448613738105 0.0
  outer loop
    vertex 3.9999999999999982 0.9999999999999996 1.5
    vertex 4.776457135307558 1.1022225211327947 4.999999999999709
    vertex 3.9999999999999982 0.9999999999999996 4.999999999999709
  endloop
endfacet
facet normal 0.3826834323650897 -0.9238795325112867 0.0
  outer loop
    vertex 5.499999999999996 1.4019237886466835 4.999999999999709
    vertex 4.776457135307558 1.1022225211327947 1.5
    vertex 5.499999999999996 1.4019237886466835 1.5
  endloop
endfacet
facet normal 0.3826834323650897 -0.9238795325112867 0.0
  outer loop
    vertex 4.776457135307558 1.1022225211327947 1.5
    vertex 5.499999999999996 1.4019237886466835 4.999999999999709
    vertex 4.776457135307558 1.1022225211327947 4.999999999999709
  endloop
endfacet
facet normal 0.6087614290087231 -0.7933533402912333 0.0
  outer loop
    vertex 6.121320343559635 1.8786796564403574 4.999999999999709
    vertex 5.499999999999996 1.4019237886466835 1.5
    vertex 6.121320343559635 1.8786796564403574 1.5
  endloop
endfacet
facet normal 0.6087614290087231 -0.7933533402912333 0.0
  outer loop
    vertex 5.499999999999996 1.4019237886466835 1.5
    vertex 6.121320343559635 1.8786796564403574 4.999999999999709
    vertex 5.499999999999996 1.4019237886466835 4.999999999999709
  endloop
endfacet
facet normal -0.9238795325112868 -0.38268343236508945 0.0
  outer loop
    vertex 1.1022225211327934 3.2235428646924364 4.999999999999709
    vertex 1.4019237886466822 2.4999999999999982 1.5
    vertex 1.4019237886466822 2.4999999999999982 4.999999999999709
  endloop
endfacet
facet normal -0.9238795325112868 -0.38268343236508945 0.0
  outer loop
    vertex 1.4019237886466822 2.4999999999999982 1.5
    vertex 1.1022225211327934 3.2235428646924364 4.999999999999709
    vertex 1.1022225211327934 3.2235428646924364 1.5
  endloop
endfacet
facet normal -0.9914448613738105 -0.13052619222005168 0.0
  outer loop
    vertex 0.9999999999999981 3.999999999999999 4.999999999999709
    vertex 1.1022225211327934 3.2235428646924364 1.5
    vertex 1.1022225211327934 3.2235428646924364 4.999999999999709
  endloop
endfacet
facet normal -0.9914448613738105 -0.13052619222005168 0.0
  outer loop
    vertex 1.1022225211327934 3.2235428646924364 1.5
    vertex 0.9999999999999981 3.999999999999999 4.999999999999709
    vertex 0.9999999999999981 3.999999999999999 1.5
  endloop
endfacet
facet normal -0.9914448613738105 0.13052619222005202 2.1183098299818727e-32
  outer loop
    vertex 1.1022225211327934 4.7764571353075596 4.999999999999709
    vertex 0.9999999999999981 3.999999999999999 1.5
    vertex 0.9999999999999981 3.999999999999999 4.999999999999709
  endloop
endfacet
facet normal -0.9914448613738105 0.13052619222005202 2.1183098299818727e-32
  outer loop
    vertex 0.9999999999999981 3.999999999999999 1.5
    vertex 1.1022225211327934 4.7764571353075596 4.999999999999709
    vertex 1.1022225211327934 4.7764571353075596 1.5
  endloop
endfacet
facet normal -0.6087614290087235 0.7933533402912331 -2.5750665836549178e-31
  outer loop
    vertex 1.8786796564403547 6.121320343559637 4.999999999999709
    vertex 2.499999999999997 6.598076211353313 1.5
    vertex 1.8786796564403547 6.121320343559637 1.5
  endloop
endfacet
facet normal -0.6087614290087235 0.7933533402912331 -2.5750665836549178e-31
  outer loop
    vertex 2.499999999999997 6.598076211353313 1.5
    vertex 1.8786796564403547 6.121320343559637 4.999999999999709
    vertex 2.499999999999997 6.598076211353313 4.999999999999709
  endloop
endfacet
facet normal -0.3826834323650883 0.9238795325112875 0.0
  outer loop
    vertex 2.499999999999997 6.598076211353313 4.999999999999709
    vertex 3.2235428646924342 6.897777478867201 1.5
    vertex 2.499999999999997 6.598076211353313 1.5
  endloop
endfacet
facet normal -0.3826834323650883 0.9238795325112875 0.0
  outer loop
    vertex 3.2235428646924342 6.897777478867201 1.5
    vertex 2.499999999999997 6.598076211353313 4.999999999999709
    vertex 3.2235428646924342 6.897777478867201 4.999999999999709
  endloop
endfacet
facet normal -0.7933533402912344 -0.6087614290087218 0.0
  outer loop
    vertex 1.4019237886466822 2.4999999999999982 4.999999999999709
    vertex 1.878679656440356 1.8786796564403567 1.5
    vertex 1.878679656440356 1.8786796564403567 4.999999999999709
  endloop
endfacet
facet normal -0.7933533402912344 -0.6087614290087218 0.0
  outer loop
    vertex 1.878679656440356 1.8786796564403567 1.5
    vertex 1.4019237886466822 2.4999999999999982 4.999999999999709
    vertex 1.4019237886466822 2.4999999999999982 1.5
  endloop
endfacet
facet normal -0.9238795325112871 0.38268343236508917 -4.370300238915908e-18
  outer loop
    vertex 1.4019237886466822 5.499999999999998 4.999999999999709
    vertex 1.1022225211327934 4.7764571353075596 1.5
    vertex 1.1022225211327934 4.7764571353075596 4.999999999999709
  endloop
endfacet
facet normal -0.9238795325112871 0.38268343236508917 -4.370300238915908e-18
  outer loop
    vertex 1.1022225211327934 4.7764571353075596 1.5
    vertex 1.4019237886466822 5.499999999999998 4.999999999999709
    vertex 1.4019237886466822 5.499999999999998 1.5
  endloop
endfacet
facet normal -0.7933533402912334 0.6087614290087229 0.0
  outer loop
    vertex 1.8786796564403547 6.121320343559637 4.999999999999709
    vertex 1.4019237886466822 5.499999999999998 1.5
    vertex 1.4019237886466822 5.499999999999998 4.999999999999709
  endloop
endfacet
facet normal -0.7933533402912334 0.6087614290087229 0.0
  outer loop
    vertex 1.4019237886466822 5.499999999999998 1.5
    vertex 1.8786796564403547 6.121320343559637 4.999999999999709
    vertex 1.8786796564403547 6.121320343559637 1.5
  endloop
endfacet
facet normal -0.13052619222005143 0.9914448613738105 0.0
  outer loop
    vertex 3.2235428646924342 6.897777478867201 4.999999999999709
    vertex 3.9999999999999982 6.999999999999996 1.5
    vertex 3.2235428646924342 6.897777478867201 1.5
  endloop
endfacet
facet normal -0.13052619222005143 0.9914448613738105 0.0
  outer loop
    vertex 3.9999999999999982 6.999999999999996 1.5
    vertex 3.2235428646924342 6.897777478867201 4.999999999999709
    vertex 3.9999999999999982 6.999999999999996 4.999999999999709
  endloop
endfacet
facet normal 0.1305261922200526 0.9914448613738103 0.0
  outer loop
    vertex 3.9999999999999982 6.999999999999996 4.999999999999709
    vertex 4.776457135307555 6.897777478867201 1.5
    vertex 3.9999999999999982 6.999999999999996 1.5
  endloop
endfacet
facet normal 0.1305261922200526 0.9914448613738103 0.0
  outer loop
    vertex 4.776457135307555 6.897777478867201 1.5
    vertex 3.9999999999999982 6.999999999999996 4.999999999999709
    vertex 4.776457135307555 6.897777478867201 4.999999999999709
  endloop
endfacet
facet normal 0.3826834323650883 0.9238795325112875 0.0
  outer loop
    vertex 4.776457135307555 6.897777478867201 4.999999999999709
    vertex 5.499999999999993 6.598076211353313 1.5
    vertex 4.776457135307555 6.897777478867201 1.5
  endloop
endfacet
facet normal 0.3826834323650883 0.9238795325112875 0.0
  outer loop
    vertex 5.499999999999993 6.598076211353313 1.5
    vertex 4.776457135307555 6.897777478867201 4.999999999999709
    vertex 5.499999999999993 6.598076211353313 4.999999999999709
  endloop
endfacet
facet normal 0.6087614290087213 0.7933533402912347 0.0
  outer loop
    vertex 5.499999999999993 6.598076211353313 4.999999999999709
    vertex 6.121320343559635 6.121320343559639 1.5
    vertex 5.499999999999993 6.598076211353313 1.5
  endloop
endfacet
facet normal 0.6087614290087213 0.7933533402912347 0.0
  outer loop
    vertex 6.121320343559635 6.121320343559639 1.5
    vertex 5.499999999999993 6.598076211353313 4.999999999999709
    vertex 6.121320343559635 6.121320343559639 4.999999999999709
  endloop
endfacet
facet normal 0.7933533402912334 0.6087614290087229 1.975918085481212e-31
  outer loop
    vertex 6.121320343559635 6.121320343559639 1.5
    vertex 6.598076211353307 5.500000000000001 4.999999999999709
    vertex 6.598076211353307 5.500000000000001 1.5
  endloop
endfacet
facet normal 0.7933533402912334 0.6087614290087229 1.975918085481212e-31
  outer loop
    vertex 6.598076211353307 5.500000000000001 4.999999999999709
    vertex 6.121320343559635 6.121320343559639 1.5
    vertex 6.121320343559635 6.121320343559639 4.999999999999709
  endloop
endfacet
facet normal 0.9238795325112865 0.3826834323650907 0.0
  outer loop
    vertex 6.598076211353307 5.500000000000001 1.5
    vertex 6.897777478867198 4.776457135307562 4.999999999999709
    vertex 6.897777478867198 4.776457135307562 1.5
  endloop
endfacet
facet normal 0.9238795325112865 0.3826834323650907 0.0
  outer loop
    vertex 6.897777478867198 4.776457135307562 4.999999999999709
    vertex 6.598076211353307 5.500000000000001 1.5
    vertex 6.598076211353307 5.500000000000001 4.999999999999709
  endloop
endfacet
facet normal 0.9914448613738105 0.13052619222005168 0.0
  outer loop
    vertex 6.897777478867198 4.776457135307562 1.5
    vertex 6.999999999999993 3.9999999999999996 4.999999999999709
    vertex 6.999999999999993 3.9999999999999996 1.5
  endloop
endfacet
facet normal 0.9914448613738105 0.13052619222005168 0.0
  outer loop
    vertex 6.999999999999993 3.9999999999999996 4.999999999999709
    vertex 6.897777478867198 4.776457135307562 1.5
    vertex 6.897777478867198 4.776457135307562 4.999999999999709
  endloop
endfacet
facet normal 0.0 0.0 -1.0
  outer loop
    vertex 0.136296694843727 5.035276180410084 0.0
    vertex 0.1362966948437256 2.9647238195899184 0.0
    vertex 0.0 4.0 0.0
  endloop
endfacet
facet normal 0.0 0.0 -1.0
  outer loop
    vertex 0.1362966948437256 2.9647238195899184 0.0
    vertex 0.136296694843727 5.035276180410084 0.0
    vertex 0.5358983848622445 2.0000000000000004 0.0
  endloop
endfacet
facet normal 0.0 0.0 -1.0
  outer loop
    vertex 0.5358983848622445 2.0000000000000004 0.0
    vertex 0.136296694843727 5.035276180410084 0.0
    vertex 0.5358983848622445 5.999999999999993 0.0
  endloop
endfacet
facet normal 0.0 0.0 -1.0
  outer loop
    vertex 0.5358983848622445 2.0000000000000004 0.0
    vertex 0.5358983848622445 5.999999999999993 0.0
    vertex 1.1715728752538097 6.828427124746187 0.0
  endloop
endfacet
facet normal 0.0 0.0 -1.0
  outer loop
    vertex 0.5358983848622445 2.0000000000000004 0.0
    vertex 1.1715728752538097 6.828427124746187 0.0
    vertex 1.1715728752538068 1.1715728752538115 0.0
  endloop
endfacet
facet normal 0.0 0.0 -1.0
  outer loop
    vertex 1.1715728752538068 1.1715728752538115 0.0
    vertex 1.1715728752538097 6.828427124746187 0.0
    vertex 1.9999999999999978 0.5358983848622466 0.0
  endloop
endfacet
facet normal 0.0 0.0 -1.0
  outer loop
    vertex 1.9999999999999978 0.5358983848622466 0.0
    vertex 1.1715728752538097 6.828427124746187 0.0
    vertex 2.0000000000000004 7.464101615137756 0.0
  endloop
endfacet
facet normal 0.0 0.0 -1.0
  outer loop
    vertex 1.9999999999999978 0.5358983848622466 0.0
    vertex 2.0000000000000004 7.464101615137756 0.0
    vertex 2.964723819589913 0.13629669484372772 0.0
  endloop
endfacet
facet normal 0.0 0.0 -1.0
  outer loop
    vertex 2.964723819589913 0.13629669484372772 0.0
    vertex 2.0000000000000004 7.464101615137756 0.0
    vertex 2.9647238195899157 7.863703305156274 0.0
  endloop
endfacet
facet normal 0.0 0.0 -1.0
  outer loop
    vertex 2.964723819589913 0.13629669484372772 0.0
    vertex 2.9647238195899157 7.863703305156274 0.0
    vertex 3.999999999999997 0.0 0.0
  endloop
endfacet
facet normal 0.0 0.0 -1.0
  outer loop
    vertex 3.999999999999997 0.0 0.0
    vertex 2.9647238195899157 7.863703305156274 0.0
    vertex 3.9999999999999982 8.0 0.0
  endloop
endfacet
facet normal 0.0 0.0 -1.0
  outer loop
    vertex 3.999999999999997 0.0 0.0
    vertex 3.9999999999999982 8.0 0.0
    vertex 5.035276180410075 0.1362966948437263 0.0
  endloop
endfacet
facet normal 0.0 0.0 -1.0
  outer loop
    vertex 5.035276180410075 0.1362966948437263 0.0
    vertex 3.9999999999999982 8.0 0.0
    vertex 5.035276180410078 7.863703305156274 0.0
  endloop
endfacet
facet normal 0.0 0.0 -1.0
  outer loop
    vertex 5.035276180410075 0.1362966948437263 0.0
    vertex 5.035276180410078 7.863703305156274 0.0
    vertex 5.999999999999992 0.5358983848622437 0.0
  endloop
endfacet
facet normal 0.0 0.0 -1.0
  outer loop
    vertex 5.999999999999992 0.5358983848622437 0.0
    vertex 5.035276180410078 7.863703305156274 0.0
    vertex 5.999999999999995 7.4641016151377535 0.0
  endloop
endfacet
facet normal 0.0 0.0 -1.0
  outer loop
    vertex 5.999999999999992 0.5358983848622437 0.0
    vertex 5.999999999999995 7.4641016151377535 0.0
    vertex 6.828427124746181 1.1715728752538093 0.0
  endloop
endfacet
facet normal 0.0 0.0 -1.0
  outer loop
    vertex 6.828427124746181 1.1715728752538093 0.0
    vertex 5.999999999999995 7.4641016151377535 0.0
    vertex 6.8284271247461845 6.828427124746187 0.0
  endloop
endfacet
facet normal 0.0 0.0 -1.0
  outer loop
    vertex 6.828427124746181 1.1715728752538093 0.0
    vertex 6.8284271247461845 6.828427124746187 0.0
    vertex 7.464101615137744 1.9999999999999978 0.0
  endloop
endfacet
facet normal 0.0 0.0 -1.0
  outer loop
    vertex 7.464101615137744 1.9999999999999978 0.0
    vertex 6.8284271247461845 6.828427124746187 0.0
    vertex 7.464101615137744 5.99999999999999 0.0
  endloop
endfacet
facet normal 0.0 0.0 -1.0
  outer loop
    vertex 7.464101615137744 1.9999999999999978 0.0
    vertex 7.464101615137744 5.99999999999999 0.0
    vertex 7.863703305156259 5.035276180410081 0.0
  endloop
endfacet
facet normal 0.0 0.0 -1.0
  outer loop
    vertex 7.464101615137744 1.9999999999999978 0.0
    vertex 7.863703305156259 5.035276180410081 0.0
    vertex 7.863703305156259 2.9647238195899135 0.0
  endloop
endfacet
facet normal 0.0 0.0 -1.0
  outer loop
    vertex 7.863703305156259 2.9647238195899135 0.0
    vertex 7.863703305156259 5.035276180410081 0.0
    vertex 7.999999999999985 3.9999999999999996 0.0
  endloop
endfacet
facet normal 0.0 0.0 1.0
  outer loop
    vertex 0.1362966948437256 2.9647238195899184 1.5
    vertex 0.136296694843727 5.035276180410084 1.5
    vertex 0.0 4.0 1.5
  endloop
endfacet
facet normal 0.0 0.0 1.0
  outer loop
    vertex 0.136296694843727 5.035276180410084 1.5
    vertex 0.1362966948437256 2.9647238195899184 1.5
    vertex 0.5358983848622445 2.0000000000000004 1.5
  endloop
endfacet
facet normal 0.0 0.0 1.0
  outer loop
    vertex 0.136296694843727 5.035276180410084 1.5
    vertex 0.5358983848622445 2.0000000000000004 1.5
    vertex 0.5358983848622445 5.999999999999993 1.5
  endloop
endfacet
facet normal 0.0 0.0 1.0
  outer loop
    vertex 0.5358983848622445 5.999999999999993 1.5
    vertex 0.5358983848622445 2.0000000000000004 1.5
    vertex 1.1715728752538068 1.1715728752538115 1.5
  endloop
endfacet
facet normal 0.0 0.0 1.0
  outer loop
    vertex 0.5358983848622445 5.999999999999993 1.5
    vertex 1.1715728752538068 1.1715728752538115 1.5
    vertex 0.9999999999999981 3.999999999999999 1.5
  endloop
endfacet
facet normal 0.0 0.0 1.0
  outer loop
    vertex 0.9999999999999981 3.999999999999999 1.5
    vertex 1.1715728752538068 1.1715728752538115 1.5
    vertex 1.1022225211327934 3.2235428646924364 1.5
  endloop
endfacet
facet normal 0.0 0.0 1.0
  outer loop
    vertex 1.1022225211327934 3.2235428646924364 1.5
    vertex 1.1715728752538068 1.1715728752538115 1.5
    vertex 1.4019237886466822 2.4999999999999982 1.5
  endloop
endfacet
facet normal 0.0 0.0 1.0
  outer loop
    vertex 1.4019237886466822 2.4999999999999982 1.5
    vertex 1.1715728752538068 1.1715728752538115 1.5
    vertex 1.9999999999999978 0.5358983848622466 1.5
  endloop
endfacet
facet normal 0.0 0.0 1.0
  outer loop
    vertex 1.4019237886466822 2.4999999999999982 1.5
    vertex 1.9999999999999978 0.5358983848622466 1.5
    vertex 1.878679656440356 1.8786796564403567 1.5
  endloop
endfacet
facet normal 0.0 0.0 1.0
  outer loop
    vertex 1.878679656440356 1.8786796564403567 1.5
    vertex 1.9999999999999978 0.5358983848622466 1.5
    vertex 2.4999999999999996 1.4019237886466835 1.5
  endloop
endfacet
facet normal 0.0 0.0 1.0
  outer loop
    vertex 2.4999999999999996 1.4019237886466835 1.5
    vertex 1.9999999999999978 0.5358983848622466 1.5
    vertex 2.964723819589913 0.13629669484372772 1.5
  endloop
endfacet
facet normal 0.0 0.0 1.0
  outer loop
    vertex 2.4999999999999996 1.4019237886466835 1.5
    vertex 2.964723819589913 0.13629669484372772 1.5
    vertex 3.223542864692437 1.1022225211327945 1.5
  endloop
endfacet
facet normal 0.0 0.0 1.0
  outer loop
    vertex 3.223542864692437 1.1022225211327945 1.5
    vertex 2.964723819589913 0.13629669484372772 1.5
    vertex 3.999999999999997 0.0 1.5
  endloop
endfacet
facet normal 0.0 0.0 1.0
  outer loop
    vertex 3.223542864692437 1.1022225211327945 1.5
    vertex 3.999999999999997 0.0 1.5
    vertex 3.9999999999999982 0.9999999999999996 1.5
  endloop
endfacet
facet normal 0.0 0.0 1.0
  outer loop
    vertex 3.9999999999999982 0.9999999999999996 1.5
    vertex 3.999999999999997 0.0 1.5
    vertex 5.035276180410075 0.1362966948437263 1.5
  endloop
endfacet
facet normal 0.0 0.0 1.0
  outer loop
    vertex 3.9999999999999982 0.9999999999999996 1.5
    vertex 5.035276180410075 0.1362966948437263 1.5
    vertex 4.776457135307558 1.1022225211327947 1.5
  endloop
endfacet
facet normal 0.0 0.0 1.0
  outer loop
    vertex 4.776457135307558 1.1022225211327947 1.5
    vertex 5.035276180410075 0.1362966948437263 1.5
    vertex 5.499999999999996 1.4019237886466835 1.5
  endloop
endfacet
facet normal 0.0 0.0 1.0
  outer loop
    vertex 5.499999999999996 1.4019237886466835 1.5
    vertex 5.035276180410075 0.1362966948437263 1.5
    vertex 5.999999999999992 0.5358983848622437 1.5
  endloop
endfacet
facet normal 0.0 0.0 1.0
  outer loop
    vertex 5.499999999999996 1.4019237886466835 1.5
    vertex 5.999999999999992 0.5358983848622437 1.5
    vertex 6.121320343559635 1.8786796564403574 1.5
  endloop
endfacet
facet normal 0.0 0.0 1.0
  outer loop
    vertex 6.121320343559635 1.8786796564403574 1.5
    vertex 5.999999999999992 0.5358983848622437 1.5
    vertex 6.828427124746181 1.1715728752538093 1.5
  endloop
endfacet
facet normal 0.0 0.0 1.0
  outer loop
    vertex 6.121320343559635 1.8786796564403574 1.5
    vertex 6.828427124746181 1.1715728752538093 1.5
    vertex 6.59807621135331 2.4999999999999996 1.5
  endloop
endfacet
facet normal 0.0 0.0 1.0
  outer loop
    vertex 6.59807621135331 2.4999999999999996 1.5
    vertex 6.828427124746181 1.1715728752538093 1.5
    vertex 6.897777478867198 3.223542864692438 1.5
  endloop
endfacet
facet normal 0.0 0.0 1.0
  outer loop
    vertex 6.897777478867198 3.223542864692438 1.5
    vertex 6.828427124746181 1.1715728752538093 1.5
    vertex 7.464101615137744 1.9999999999999978 1.5
  endloop
endfacet
facet normal 0.0 0.0 1.0
  outer loop
    vertex 6.897777478867198 3.223542864692438 1.5
    vertex 7.464101615137744 1.9999999999999978 1.5
    vertex 6.999999999999993 3.9999999999999996 1.5
  endloop
endfacet
facet normal 0.0 0.0 1.0
  outer loop
    vertex 0.9999999999999981 3.999999999999999 1.5
    vertex 1.1715728752538097 6.828427124746187 1.5
    vertex 0.5358983848622445 5.999999999999993 1.5
  endloop
endfacet
facet normal 0.0 0.0 1.0
  outer loop
    vertex 1.1715728752538097 6.828427124746187 1.5
    vertex 0.9999999999999981 3.999999999999999 1.5
    vertex 1.1022225211327934 4.7764571353075596 1.5
  endloop
endfacet
facet normal 0.0 0.0 1.0
  outer loop
    vertex 1.1715728752538097 6.828427124746187 1.5
    vertex 1.1022225211327934 4.7764571353075596 1.5
    vertex 1.4019237886466822 5.499999999999998 1.5
  endloop
endfacet
facet normal 0.0 0.0 1.0
  outer loop
    vertex 1.1715728752538097 6.828427124746187 1.5
    vertex 1.4019237886466822 5.499999999999998 1.5
    vertex 2.0000000000000004 7.464101615137756 1.5
  endloop
endfacet
facet normal 0.0 0.0 1.0
  outer loop
    vertex 2.0000000000000004 7.464101615137756 1.5
    vertex 1.4019237886466822 5.499999999999998 1.5
    vertex 1.8786796564403547 6.121320343559637 1.5
  endloop
endfacet
facet normal 0.0 0.0 1.0
  outer loop
    vertex 2.0000000000000004 7.464101615137756 1.5
    vertex 1.8786796564403547 6.121320343559637 1.5
    vertex 2.499999999999997 6.598076211353313 1.5
  endloop
endfacet
facet normal 0.0 0.0 1.0
  outer loop
    vertex 2.0000000000000004 7.464101615137756 1.5
    vertex 2.499999999999997 6.598076211353313 1.5
    vertex 2.9647238195899157 7.863703305156274 1.5
  endloop
endfacet
facet normal 0.0 0.0 1.0
  outer loop
    vertex 2.9647238195899157 7.863703305156274 1.5
    vertex 2.499999999999997 6.598076211353313 1.5
    vertex 3.2235428646924342 6.897777478867201 1.5
  endloop
endfacet
facet normal 0.0 0.0 1.0
  outer loop
    vertex 2.9647238195899157 7.863703305156274 1.5
    vertex 3.2235428646924342 6.897777478867201 1.5
    vertex 3.9999999999999982 8.0 1.5
  endloop
endfacet
facet normal 0.0 0.0 1.0
  outer loop
    vertex 3.9999999999999982 8.0 1.5
    vertex 3.2235428646924342 6.897777478867201 1.5
    vertex 3.9999999999999982 6.999999999999996 1.5
  endloop
endfacet
facet normal 0.0 0.0 1.0
  outer loop
    vertex 3.9999999999999982 8.0 1.5
    vertex 3.9999999999999982 6.999999999999996 1.5
    vertex 4.776457135307555 6.897777478867201 1.5
  endloop
endfacet
facet normal 0.0 0.0 1.0
  outer loop
    vertex 3.9999999999999982 8.0 1.5
    vertex 4.776457135307555 6.897777478867201 1.5
    vertex 5.035276180410078 7.863703305156274 1.5
  endloop
endfacet
facet normal 0.0 0.0 1.0
  outer loop
    vertex 5.035276180410078 7.863703305156274 1.5
    vertex 4.776457135307555 6.897777478867201 1.5
    vertex 5.499999999999993 6.598076211353313 1.5
  endloop
endfacet
facet normal 0.0 0.0 1.0
  outer loop
    vertex 5.035276180410078 7.863703305156274 1.5
    vertex 5.499999999999993 6.598076211353313 1.5
    vertex 5.999999999999995 7.4641016151377535 1.5
  endloop
endfacet
facet normal 0.0 0.0 1.0
  outer loop
    vertex 5.999999999999995 7.4641016151377535 1.5
    vertex 5.499999999999993 6.598076211353313 1.5
    vertex 6.121320343559635 6.121320343559639 1.5
  endloop
endfacet
facet normal 0.0 0.0 1.0
  outer loop
    vertex 5.999999999999995 7.4641016151377535 1.5
    vertex 6.121320343559635 6.121320343559639 1.5
    vertex 6.8284271247461845 6.828427124746187 1.5
  endloop
endfacet
facet normal 0.0 0.0 1.0
  outer loop
    vertex 6.8284271247461845 6.828427124746187 1.5
    vertex 6.121320343559635 6.121320343559639 1.5
    vertex 6.598076211353307 5.500000000000001 1.5
  endloop
endfacet
facet normal 0.0 0.0 1.0
  outer loop
    vertex 6.8284271247461845 6.828427124746187 1.5
    vertex 6.598076211353307 5.500000000000001 1.5
    vertex 6.897777478867198 4.776457135307562 1.5
  endloop
endfacet
facet normal 0.0 0.0 1.0
  outer loop
    vertex 6.8284271247461845 6.828427124746187 1.5
    vertex 6.897777478867198 4.776457135307562 1.5
    vertex 7.464101615137744 5.99999999999999 1.5
  endloop
endfacet
facet normal 0.0 0.0 1.0
  outer loop
    vertex 7.464101615137744 5.99999999999999 1.5
    vertex 6.897777478867198 4.776457135307562 1.5
    vertex 6.999999999999993 3.9999999999999996 1.5
  endloop
endfacet
facet normal 0.0 0.0 1.0
  outer loop
    vertex 7.464101615137744 5.99999999999999 1.5
    vertex 6.999999999999993 3.9999999999999996 1.5
    vertex 7.464101615137744 1.9999999999999978 1.5
  endloop
endfacet
facet normal 0.0 0.0 1.0
  outer loop
    vertex 7.464101615137744 5.99999999999999 1.5
    vertex 7.464101615137744 1.9999999999999978 1.5
    vertex 7.863703305156259 2.9647238195899135 1.5
  endloop
endfacet
facet normal 0.0 0.0 1.0
  outer loop
    vertex 7.464101615137744 5.99999999999999 1.5
    vertex 7.863703305156259 2.9647238195899135 1.5
    vertex 7.863703305156259 5.035276180410081 1.5
  endloop
endfacet
facet normal 0.0 0.0 1.0
  outer loop
    vertex 7.863703305156259 5.035276180410081 1.5
    vertex 7.863703305156259 2.9647238195899135 1.5
    vertex 7.999999999999985 3.9999999999999996 1.5
  endloop
endfacet
facet normal -0.3826834323650907 -0.9238795325112865 0.0
  outer loop
    vertex 2.964723819589913 0.13629669484372772 1.5
    vertex 1.9999999999999978 0.5358983848622466 0.0
    vertex 2.964723819589913 0.13629669484372772 0.0
  endloop
endfacet
facet normal -0.3826834323650907 -0.9238795325112865 0.0
  outer loop
    vertex 1.9999999999999978 0.5358983848622466 0.0
    vertex 2.964723819589913 0.13629669484372772 1.5
    vertex 1.9999999999999978 0.5358983848622466 1.5
  endloop
endfacet
facet normal -0.13052619222005232 -0.9914448613738105 0.0
  outer loop
    vertex 3.999999999999997 0.0 1.5
    vertex 2.964723819589913 0.13629669484372772 0.0
    vertex 3.999999999999997 0.0 0.0
  endloop
endfacet
facet normal -0.13052619222005232 -0.9914448613738105 0.0
  outer loop
    vertex 2.964723819589913 0.13629669484372772 0.0
    vertex 3.999999999999997 0.0 1.5
    vertex 2.964723819589913 0.13629669484372772 1.5
  endloop
endfacet
facet normal 0.13052619222005177 -0.9914448613738105 -1.1533020185454918e-31
  outer loop
    vertex 5.035276180410075 0.1362966948437263 1.5
    vertex 3.999999999999997 0.0 0.0
    vertex 5.035276180410075 0.1362966948437263 0.0
  endloop
endfacet
facet normal 0.13052619222005177 -0.9914448613738105 -1.1533020185454918e-31
  outer loop
    vertex 3.999999999999997 0.0 0.0
    vertex 5.035276180410075 0.1362966948437263 1.5
    vertex 3.999999999999997 0.0 1.5
  endloop
endfacet
facet normal 0.38268343236508884 -0.9238795325112873 -1.1896928428157979e-17
  outer loop
    vertex 5.999999999999992 0.5358983848622437 1.5
    vertex 5.035276180410075 0.1362966948437263 0.0
    vertex 5.999999999999992 0.5358983848622437 0.0
  endloop
endfacet
facet normal 0.38268343236508884 -0.9238795325112873 -1.1896928428157979e-17
  outer loop
    vertex 5.035276180410075 0.1362966948437263 0.0
    vertex 5.999999999999992 0.5358983848622437 1.5
    vertex 5.035276180410075 0.1362966948437263 1.5
  endloop
endfacet
facet normal 0.6087614290087217 -0.7933533402912346 0.0
  outer loop
    vertex 6.828427124746181 1.1715728752538093 1.5
    vertex 5.999999999999992 0.5358983848622437 0.0
    vertex 6.828427124746181 1.1715728752538093 0.0
  endloop
endfacet
facet normal 0.6087614290087217 -0.7933533402912346 0.0
  outer loop
    vertex 5.999999999999992 0.5358983848622437 0.0
    vertex 6.828427124746181 1.1715728752538093 1.5
    vertex 5.999999999999992 0.5358983848622437 1.5
  endloop
endfacet
facet normal 0.7933533402912355 -0.6087614290087201 0.0
  outer loop
    vertex 7.464101615137744 1.9999999999999978 0.0
    vertex 6.828427124746181 1.1715728752538093 1.5
    vertex 6.828427124746181 1.1715728752538093 0.0
  endloop
endfacet
facet normal 0.7933533402912355 -0.6087614290087201 0.0
  outer loop
    vertex 6.828427124746181 1.1715728752538093 1.5
    vertex 7.464101615137744 1.9999999999999978 0.0
    vertex 7.464101615137744 1.9999999999999978 1.5
  endloop
endfacet
facet normal 0.9238795325112881 -0.38268343236508706 0.0
  outer loop
    vertex 7.863703305156259 2.9647238195899135 0.0
    vertex 7.464101615137744 1.9999999999999978 1.5
    vertex 7.464101615137744 1.9999999999999978 0.0
  endloop
endfacet
facet normal 0.9238795325112881 -0.38268343236508706 0.0
  outer loop
    vertex 7.464101615137744 1.9999999999999978 1.5
    vertex 7.863703305156259 2.9647238195899135 0.0
    vertex 7.863703305156259 2.9647238195899135 1.5
  endloop
endfacet
facet normal 0.9914448613738105 -0.1305261922200514 -4.057820735130434e-18
  outer loop
    vertex 7.999999999999985 3.9999999999999996 0.0
    vertex 7.863703305156259 2.9647238195899135 1.5
    vertex 7.863703305156259 2.9647238195899135 0.0
  endloop
endfacet
facet normal 0.9914448613738105 -0.1305261922200514 -4.057820735130434e-18
  outer loop
    vertex 7.863703305156259 2.9647238195899135 1.5
    vertex 7.999999999999985 3.9999999999999996 0.0
    vertex 7.999999999999985 3.9999999999999996 1.5
  endloop
endfacet
facet normal 0.9914448613738105 0.130526192220052 0.0
  outer loop
    vertex 7.863703305156259 5.035276180410081 0.0
    vertex 7.999999999999985 3.9999999999999996 1.5
    vertex 7.999999999999985 3.9999999999999996 0.0
  endloop
endfacet
facet normal 0.9914448613738105 0.130526192220052 0.0
  outer loop
    vertex 7.999999999999985 3.9999999999999996 1.5
    vertex 7.863703305156259 5.035276180410081 0.0
    vertex 7.863703305156259 5.035276180410081 1.5
  endloop
endfacet
facet normal 0.9238795325112871 0.3826834323650891 0.0
  outer loop
    vertex 7.464101615137744 5.99999999999999 0.0
    vertex 7.863703305156259 5.035276180410081 1.5
    vertex 7.863703305156259 5.035276180410081 0.0
  endloop
endfacet
facet normal 0.9238795325112871 0.3826834323650891 0.0
  outer loop
    vertex 7.863703305156259 5.035276180410081 1.5
    vertex 7.464101615137744 5.99999999999999 0.0
    vertex 7.464101615137744 5.99999999999999 1.5
  endloop
endfacet
facet normal 0.7933533402912397 0.6087614290087147 1.0757776243173553e-30
  outer loop
    vertex 6.8284271247461845 6.828427124746187 0.0
    vertex 7.464101615137744 5.99999999999999 1.5
    vertex 7.464101615137744 5.99999999999999 0.0
  endloop
endfacet
facet normal 0.7933533402912397 0.6087614290087147 1.0757776243173553e-30
  outer loop
    vertex 7.464101615137744 5.99999999999999 1.5
    vertex 6.8284271247461845 6.828427124746187 0.0
    vertex 6.8284271247461845 6.828427124746187 1.5
  endloop
endfacet
facet normal 0.6087614290087222 0.7933533402912339 0.0
  outer loop
    vertex 5.999999999999995 7.4641016151377535 1.5
    vertex 6.8284271247461845 6.828427124746187 0.0
    vertex 5.999999999999995 7.4641016151377535 0.0
  endloop
endfacet
facet normal 0.6087614290087222 0.7933533402912339 0.0
  outer loop
    vertex 6.8284271247461845 6.828427124746187 0.0
    vertex 5.999999999999995 7.4641016151377535 1.5
    vertex 6.8284271247461845 6.828427124746187 1.5
  endloop
endfacet
facet normal 0.3826834323650911 0.9238795325112862 -1.1896928428158049e-17
  outer loop
    vertex 5.035276180410078 7.863703305156274 1.5
    vertex 5.999999999999995 7.4641016151377535 0.0
    vertex 5.035276180410078 7.863703305156274 0.0
  endloop
endfacet
facet normal 0.3826834323650911 0.9238795325112862 -1.1896928428158049e-17
  outer loop
    vertex 5.999999999999995 7.4641016151377535 0.0
    vertex 5.035276180410078 7.863703305156274 1.5
    vertex 5.999999999999995 7.4641016151377535 1.5
  endloop
endfacet
facet normal 0.13052619222005227 0.9914448613738105 1.153302018545496e-31
  outer loop
    vertex 3.9999999999999982 8.0 1.5
    vertex 5.035276180410078 7.863703305156274 0.0
    vertex 3.9999999999999982 8.0 0.0
  endloop
endfacet
facet normal 0.13052619222005227 0.9914448613738105 1.153302018545496e-31
  outer loop
    vertex 5.035276180410078 7.863703305156274 0.0
    vertex 3.9999999999999982 8.0 1.5
    vertex 5.035276180410078 7.863703305156274 1.5
  endloop
endfacet
facet normal -0.13052619222005182 0.9914448613738105 0.0
  outer loop
    vertex 2.9647238195899157 7.863703305156274 1.5
    vertex 3.9999999999999982 8.0 0.0
    vertex 2.9647238195899157 7.863703305156274 0.0
  endloop
endfacet
facet normal -0.13052619222005182 0.9914448613738105 0.0
  outer loop
    vertex 3.9999999999999982 8.0 0.0
    vertex 2.9647238195899157 7.863703305156274 1.5
    vertex 3.9999999999999982 8.0 1.5
  endloop
endfacet
facet normal -0.3826834323650895 0.9238795325112868 0.0
  outer loop
    vertex 2.0000000000000004 7.464101615137756 1.5
    vertex 2.9647238195899157 7.863703305156274 0.0
    vertex 2.0000000000000004 7.464101615137756 0.0
  endloop
endfacet
facet normal -0.3826834323650895 0.9238795325112868 0.0
  outer loop
    vertex 2.9647238195899157 7.863703305156274 0.0
    vertex 2.0000000000000004 7.464101615137756 1.5
    vertex 2.9647238195899157 7.863703305156274 1.5
  endloop
endfacet
facet normal -0.6087614290087232 0.7933533402912333 1.401980695545222e-30
  outer loop
    vertex 1.1715728752538097 6.828427124746187 1.5
    vertex 2.0000000000000004 7.464101615137756 0.0
    vertex 1.1715728752538097 6.828427124746187 0.0
  endloop
endfacet
facet normal -0.6087614290087232 0.7933533402912333 1.401980695545222e-30
  outer loop
    vertex 2.0000000000000004 7.464101615137756 0.0
    vertex 1.1715728752538097 6.828427124746187 1.5
    vertex 2.0000000000000004 7.464101615137756 1.5
  endloop
endfacet
facet normal -0.7933533402912363 0.6087614290087193 0.0
  outer loop
    vertex 1.1715728752538097 6.828427124746187 1.5
    vertex 0.5358983848622445 5.999999999999993 0.0
    vertex 0.5358983848622445 5.999999999999993 1.5
  endloop
endfacet
facet normal -0.7933533402912363 0.6087614290087193 0.0
  outer loop
    vertex 0.5358983848622445 5.999999999999993 0.0
    vertex 1.1715728752538097 6.828427124746187 1.5
    vertex 1.1715728752538097 6.828427124746187 0.0
  endloop
endfacet
facet normal -0.9238795325112862 0.3826834323650915 -1.1896928428159075e-17
  outer loop
    vertex 0.5358983848622445 5.999999999999993 1.5
    vertex 0.136296694843727 5.035276180410084 0.0
    vertex 0.136296694843727 5.035276180410084 1.5
  endloop
endfacet
facet normal -0.9238795325112862 0.3826834323650915 -1.1896928428159075e-17
  outer loop
    vertex 0.136296694843727 5.035276180410084 0.0
    vertex 0.5358983848622445 5.999999999999993 1.5
    vertex 0.5358983848622445 5.999999999999993 0.0
  endloop
endfacet
facet normal -0.9914448613738105 0.1305261922200517 -4.0578207351304445e-18
  outer loop
    vertex 0.136296694843727 5.035276180410084 1.5
    vertex 0.0 4.0 0.0
    vertex 0.0 4.0 1.5
  endloop
endfacet
facet normal -0.9914448613738105 0.1305261922200517 -4.0578207351304445e-18
  outer loop
    vertex 0.0 4.0 0.0
    vertex 0.136296694843727 5.035276180410084 1.5
    vertex 0.136296694843727 5.035276180410084 0.0
  endloop
endfacet
facet normal -0.9914448613738107 -0.13052619222005057 -4.057820735130639e-18
  outer loop
    vertex 0.0 4.0 1.5
    vertex 0.1362966948437256 2.9647238195899184 0.0
    vertex 0.1362966948437256 2.9647238195899184 1.5
  endloop
endfacet
facet normal -0.9914448613738107 -0.13052619222005057 -4.057820735130639e-18
  outer loop
    vertex 0.1362966948437256 2.9647238195899184 0.0
    vertex 0.0 4.0 1.5
    vertex 0.0 4.0 0.0
  endloop
endfacet
facet normal -0.9238795325112868 -0.38268343236508967 0.0
  outer loop
    vertex 0.1362966948437256 2.9647238195899184 1.5
    vertex 0.5358983848622445 2.0000000000000004 0.0
    vertex 0.5358983848622445 2.0000000000000004 1.5
  endloop
endfacet
facet normal -0.9238795325112868 -0.38268343236508967 0.0
  outer loop
    vertex 0.5358983848622445 2.0000000000000004 0.0
    vertex 0.1362966948437256 2.9647238195899184 1.5
    vertex 0.1362966948437256 2.9647238195899184 0.0
  endloop
endfacet
facet normal -0.7933533402912358 -0.6087614290087198 0.0
  outer loop
    vertex 0.5358983848622445 2.0000000000000004 1.5
    vertex 1.1715728752538068 1.1715728752538115 0.0
    vertex 1.1715728752538068 1.1715728752538115 1.5
  endloop
endfacet
facet normal -0.7933533402912358 -0.6087614290087198 0.0
  outer loop
    vertex 1.1715728752538068 1.1715728752538115 0.0
    vertex 0.5358983848622445 2.0000000000000004 1.5
    vertex 0.5358983848622445 2.0000000000000004 0.0
  endloop
endfacet
facet normal -0.6087614290087204 -0.7933533402912355 0.0
  outer loop
    vertex 1.9999999999999978 0.5358983848622466 1.5
    vertex 1.1715728752538068 1.1715728752538115 0.0
    vertex 1.9999999999999978 0.5358983848622466 0.0
  endloop
endfacet
facet normal -0.6087614290087204 -0.7933533402912355 0.0
  outer loop
    vertex 1.1715728752538068 1.1715728752538115 0.0
    vertex 1.9999999999999978 0.5358983848622466 1.5
    vertex 1.1715728752538068 1.1715728752538115 1.5
  endloop
endfacet
endsolid Untitled-56f795f6
